<svg width="168" height="40" viewBox="0 0 168 40" fill="none" xmlns="http://www.w3.org/2000/svg">
<g clip-path="url(#clip0_1124_3331)">
<path d="M15.2772 1.93817C17.6075 0.972952 18.7726 0.490343 20 0.490343C21.2274 0.490343 22.3925 0.972952 24.7228 1.93817L29.4194 3.88356C31.7496 4.84878 32.9147 5.33139 33.7826 6.1993C34.6505 7.06721 35.1332 8.23233 36.0984 10.5626L38.0438 15.2592C39.009 17.5894 39.4916 18.7545 39.4916 19.9819C39.4916 21.2093 39.009 22.3745 38.0438 24.7047L36.0984 29.4013C35.1332 31.7315 34.6505 32.8967 33.7826 33.7646C32.9147 34.6325 31.7496 35.1151 29.4194 36.0803L24.7228 38.0257C22.3925 38.9909 21.2274 39.4735 20 39.4735C18.7726 39.4735 17.6075 38.9909 15.2772 38.0257L10.5806 36.0803C8.25039 35.1151 7.08527 34.6325 6.21736 33.7646C5.34946 32.8967 4.86685 31.7315 3.90163 29.4013L1.95624 24.7047C0.991018 22.3745 0.508409 21.2093 0.508409 19.9819C0.508409 18.7545 0.991018 17.5894 1.95624 15.2592L3.90163 10.5626C4.86685 8.23233 5.34946 7.06721 6.21736 6.1993C7.08527 5.33139 8.25039 4.84878 10.5806 3.88356L15.2772 1.93817Z" fill="#3898FF"/>
<path d="M23.638 25.8857L20.616 23.7525C17.5353 21.5779 17.3241 17.085 20.1872 14.6309C22.2127 12.8948 25.1626 12.7683 27.3294 14.3246L28.5986 15.2363C31.9159 17.6192 32.8245 22.1623 30.6788 25.6377L29.3783 27.744C26.2521 32.8077 19.5298 34.234 14.6167 30.8761L13.2921 29.9709C7.45503 25.9815 6.3326 17.8272 10.8748 12.4092L26.116 -5.77124" stroke="white" stroke-width="4.73753"/>
</g>
<path d="M50.693 11.6755C49.6804 11.6755 48.7666 11.7227 47.9514 11.8171C47.1363 11.9029 46.4326 11.9973 45.8406 12.1003C45.1541 12.229 44.5406 12.3705 44 12.525L44.3733 10.4399C44.4762 10.4485 44.6307 10.457 44.8366 10.4656C45.0426 10.4742 45.2699 10.4828 45.5188 10.4914C45.7762 10.4999 46.0422 10.5085 46.3168 10.5171C46.6 10.5171 46.866 10.5214 47.1148 10.53C47.3636 10.53 47.5825 10.5343 47.7712 10.5429C47.9686 10.5429 48.1102 10.5429 48.196 10.5429H55.5454C55.6312 10.5429 55.7685 10.5429 55.9572 10.5429C56.1546 10.5343 56.3777 10.53 56.6265 10.53C56.8754 10.5214 57.1371 10.5171 57.4117 10.5171C57.6948 10.5085 57.9608 10.4999 58.2097 10.4914C58.4671 10.4828 58.6988 10.4742 58.9047 10.4656C59.1107 10.457 59.2651 10.4485 59.3681 10.4399L59.7413 12.525C59.1922 12.3705 58.5744 12.229 57.8879 12.1003C57.2958 11.9973 56.5922 11.9029 55.7771 11.8171C54.9619 11.7227 54.048 11.6755 53.0355 11.6755V23.9674C53.0355 24.6968 53.0441 25.336 53.0613 25.8852C53.087 26.4258 53.1127 26.8934 53.1385 27.2881C53.1728 27.6829 53.2114 28.0132 53.2543 28.2792C53.3058 28.5452 53.3573 28.7683 53.4088 28.9485V29H50.3326V28.9485C50.3841 28.7683 50.4313 28.5452 50.4742 28.2792C50.5171 28.0132 50.5557 27.6829 50.59 27.2881C50.6243 26.8934 50.6501 26.4258 50.6672 25.8852C50.6844 25.336 50.693 24.6968 50.693 23.9674V11.6755ZM65.1343 29.2317C64.1819 29.2317 63.2895 29.0815 62.4571 28.7812C61.6248 28.4809 60.8997 28.0432 60.2819 27.4683C59.6641 26.8849 59.175 26.1684 58.8146 25.3189C58.4628 24.4608 58.2869 23.4826 58.2869 22.3843C58.2869 21.4146 58.4499 20.5179 58.776 19.6942C59.1021 18.8619 59.5526 18.1411 60.1275 17.5319C60.7024 16.9226 61.3717 16.4464 62.1354 16.1032C62.9076 15.7599 63.74 15.5883 64.6324 15.5883C65.5162 15.5883 66.3356 15.7428 67.0907 16.0517C67.8458 16.352 68.498 16.7939 69.0471 17.3774C69.6049 17.9523 70.0425 18.6688 70.36 19.5269C70.6861 20.3764 70.862 21.346 70.8877 22.4357C69.9181 22.4186 68.9485 22.4057 67.9788 22.3971C67.0092 22.3885 66.001 22.3843 64.9541 22.3843C64.2076 22.3843 63.4783 22.3885 62.7661 22.3971C62.0624 22.4057 61.4275 22.4186 60.8611 22.4357C60.9126 23.3281 61.0499 24.1347 61.273 24.8555C61.5047 25.5763 61.8179 26.1941 62.2126 26.7089C62.6159 27.2152 63.1007 27.6056 63.667 27.8802C64.2419 28.1548 64.8898 28.2921 65.6106 28.2921C66.1082 28.2921 66.5759 28.2363 67.0135 28.1248C67.4597 28.0046 67.863 27.8416 68.2234 27.6357C68.5838 27.4297 68.9056 27.1895 69.1887 26.9149C69.4719 26.6317 69.7122 26.3271 69.9095 26.001L70.064 26.0783L69.1115 28.3693C68.6481 28.6096 68.0947 28.8155 67.4511 28.9871C66.8076 29.1502 66.0353 29.2317 65.1343 29.2317ZM63.4225 21.3803C64.2806 21.3803 65.1386 21.3803 65.9967 21.3803C66.8634 21.3717 67.6485 21.3546 68.3521 21.3288C68.2749 20.5823 68.129 19.913 67.9145 19.3209C67.7 18.7289 67.4254 18.2269 67.0907 17.815C66.7561 17.4031 66.3614 17.0857 65.9066 16.8626C65.4518 16.6395 64.9499 16.5279 64.4007 16.5279C63.903 16.5279 63.4439 16.6395 63.0235 16.8626C62.6116 17.0771 62.2512 17.3903 61.9423 17.8021C61.6334 18.214 61.3846 18.7203 61.1958 19.3209C61.007 19.913 60.8955 20.5909 60.8611 21.3546C61.2473 21.3717 61.6549 21.3803 62.0839 21.3803C62.5129 21.3803 62.9591 21.3803 63.4225 21.3803ZM73.7322 14.7903C73.7322 14.061 73.7194 13.426 73.6936 12.8854C73.6765 12.3362 73.6507 11.8643 73.6164 11.4696C73.5906 11.0749 73.552 10.7445 73.5005 10.4785C73.4576 10.2125 73.4104 9.98939 73.359 9.8092V9.75771H76.3322V9.8092C76.2807 9.98939 76.2335 10.2125 76.1906 10.4785C76.1477 10.7445 76.1091 11.0749 76.0748 11.4696C76.0404 11.8643 76.0147 12.3362 75.9975 12.8854C75.9804 13.426 75.9718 14.061 75.9718 14.7903V23.9674C75.9718 24.6968 75.9804 25.336 75.9975 25.8852C76.0147 26.4258 76.0404 26.8934 76.0748 27.2881C76.1091 27.6829 76.1477 28.0132 76.1906 28.2792C76.2335 28.5452 76.2807 28.7683 76.3322 28.9485V29H73.359V28.9485C73.4104 28.7683 73.4576 28.5452 73.5005 28.2792C73.552 28.0132 73.5906 27.6829 73.6164 27.2881C73.6507 26.8934 73.6765 26.4258 73.6936 25.8852C73.7194 25.336 73.7322 24.6968 73.7322 23.9674V14.7903ZM85.7796 29.2317C84.8271 29.2317 83.9347 29.0815 83.1024 28.7812C82.2701 28.4809 81.545 28.0432 80.9272 27.4683C80.3094 26.8849 79.8203 26.1684 79.4599 25.3189C79.1081 24.4608 78.9322 23.4826 78.9322 22.3843C78.9322 21.4146 79.0952 20.5179 79.4213 19.6942C79.7473 18.8619 80.1978 18.1411 80.7727 17.5319C81.3476 16.9226 82.0169 16.4464 82.7806 16.1032C83.5529 15.7599 84.3852 15.5883 85.2776 15.5883C86.1614 15.5883 86.9809 15.7428 87.736 16.0517C88.4911 16.352 89.1432 16.7939 89.6924 17.3774C90.2501 17.9523 90.6877 18.6688 91.0052 19.5269C91.3313 20.3764 91.5072 21.346 91.533 22.4357C90.5633 22.4186 89.5937 22.4057 88.6241 22.3971C87.6545 22.3885 86.6462 22.3843 85.5994 22.3843C84.8529 22.3843 84.1235 22.3885 83.4113 22.3971C82.7077 22.4057 82.0727 22.4186 81.5064 22.4357C81.5579 23.3281 81.6951 24.1347 81.9182 24.8555C82.1499 25.5763 82.4631 26.1941 82.8578 26.7089C83.2611 27.2152 83.7459 27.6056 84.3123 27.8802C84.8872 28.1548 85.535 28.2921 86.2558 28.2921C86.7535 28.2921 87.2211 28.2363 87.6588 28.1248C88.1049 28.0046 88.5082 27.8416 88.8686 27.6357C89.229 27.4297 89.5508 27.1895 89.834 26.9149C90.1171 26.6317 90.3574 26.3271 90.5547 26.001L90.7092 26.0783L89.7567 28.3693C89.2934 28.6096 88.7399 28.8155 88.0964 28.9871C87.4528 29.1502 86.6805 29.2317 85.7796 29.2317ZM84.0677 21.3803C84.9258 21.3803 85.7839 21.3803 86.6419 21.3803C87.5086 21.3717 88.2937 21.3546 88.9973 21.3288C88.9201 20.5823 88.7742 19.913 88.5597 19.3209C88.3452 18.7289 88.0706 18.2269 87.736 17.815C87.4013 17.4031 87.0066 17.0857 86.5518 16.8626C86.0971 16.6395 85.5951 16.5279 85.0459 16.5279C84.5482 16.5279 84.0892 16.6395 83.6687 16.8626C83.2568 17.0771 82.8964 17.3903 82.5875 17.8021C82.2786 18.214 82.0298 18.7203 81.841 19.3209C81.6522 19.913 81.5407 20.5909 81.5064 21.3546C81.8925 21.3717 82.3001 21.3803 82.7291 21.3803C83.1582 21.3803 83.6044 21.3803 84.0677 21.3803ZM94.3002 20.5952C94.3002 19.8658 94.2874 19.2308 94.2616 18.6903C94.2445 18.1411 94.2187 17.6691 94.1844 17.2744C94.1587 16.8797 94.12 16.5494 94.0686 16.2834C94.0257 16.0174 93.9785 15.7943 93.927 15.6141V15.5626H96.9002V15.6141C96.8573 15.7428 96.8187 15.8886 96.7844 16.0517C96.75 16.2147 96.72 16.3992 96.6943 16.6051C97.2005 16.3134 97.7583 16.0688 98.3675 15.8715C98.9853 15.6655 99.6675 15.5626 100.414 15.5626C101.366 15.5626 102.233 15.7256 103.014 16.0517C103.803 16.3692 104.477 16.8282 105.035 17.4289C105.601 18.0295 106.039 18.7546 106.348 19.6041C106.656 20.4536 106.811 21.4061 106.811 22.4615C106.811 23.3453 106.656 24.1948 106.348 25.01C106.047 25.8251 105.601 26.5459 105.009 27.1723C104.425 27.7987 103.705 28.3007 102.847 28.6782C101.989 29.0472 101.002 29.2317 99.8863 29.2317C99.217 29.2317 98.6078 29.1802 98.0586 29.0772C97.5094 28.9743 97.0032 28.8413 96.5398 28.6782V30.5574C96.5398 31.2868 96.5484 31.9217 96.5655 32.4623C96.5827 33.0115 96.6085 33.4834 96.6428 33.8781C96.6771 34.2729 96.7157 34.6032 96.7586 34.8692C96.8015 35.1352 96.8487 35.3583 96.9002 35.5385V35.59H93.927V35.5385C93.9785 35.3583 94.0257 35.1352 94.0686 34.8692C94.12 34.6032 94.1587 34.2729 94.1844 33.8781C94.2187 33.4834 94.2445 33.0115 94.2616 32.4623C94.2874 31.9217 94.3002 31.2868 94.3002 30.5574V20.5952ZM99.9635 16.5279C99.6718 16.5279 99.3714 16.5665 99.0625 16.6437C98.7622 16.7124 98.4619 16.8154 98.1616 16.9527C97.8698 17.0814 97.5867 17.2487 97.3121 17.4546C97.0461 17.652 96.8058 17.8794 96.5913 18.1368C96.5741 18.4629 96.5613 18.8318 96.5527 19.2437C96.5441 19.6556 96.5398 20.1061 96.5398 20.5952V27.3396C96.7114 27.4683 96.9045 27.5885 97.119 27.7C97.3335 27.8116 97.5738 27.9145 97.8398 28.0089C98.1144 28.0947 98.419 28.1634 98.7536 28.2149C99.0969 28.2663 99.4744 28.2921 99.8863 28.2921C100.556 28.2921 101.161 28.172 101.701 27.9317C102.242 27.6914 102.696 27.3439 103.065 26.8891C103.443 26.4344 103.73 25.8809 103.928 25.2288C104.134 24.5766 104.237 23.8387 104.237 23.0149C104.237 22.0882 104.159 21.2301 104.005 20.4407C103.851 19.6427 103.602 18.9563 103.259 18.3813C102.924 17.7979 102.486 17.3431 101.946 17.017C101.405 16.6909 100.744 16.5279 99.9635 16.5279ZM108.613 22.3843C108.613 21.4146 108.793 20.5179 109.153 19.6942C109.514 18.8619 110.007 18.1411 110.634 17.5319C111.269 16.9226 112.015 16.4464 112.873 16.1032C113.731 15.7599 114.654 15.5883 115.641 15.5883C116.61 15.5883 117.52 15.7514 118.369 16.0774C119.227 16.3949 119.974 16.8497 120.609 17.4418C121.244 18.0338 121.741 18.7546 122.102 19.6041C122.471 20.4536 122.655 21.4061 122.655 22.4615C122.655 23.3453 122.501 24.1948 122.192 25.01C121.883 25.8251 121.428 26.5459 120.828 27.1723C120.227 27.7987 119.489 28.3007 118.614 28.6782C117.747 29.0472 116.747 29.2317 115.615 29.2317C114.654 29.2317 113.748 29.0729 112.899 28.7554C112.049 28.438 111.307 27.9832 110.672 27.3911C110.037 26.799 109.535 26.0826 109.166 25.2416C108.797 24.3921 108.613 23.4397 108.613 22.3843ZM115.911 28.2921C116.52 28.2921 117.078 28.172 117.584 27.9317C118.099 27.6914 118.541 27.3439 118.91 26.8891C119.279 26.4344 119.566 25.8809 119.772 25.2288C119.978 24.5766 120.081 23.8387 120.081 23.0149C120.081 22.0882 119.982 21.2301 119.785 20.4407C119.588 19.6427 119.292 18.9563 118.897 18.3813C118.511 17.7979 118.022 17.3431 117.43 17.017C116.838 16.6909 116.147 16.5279 115.357 16.5279C114.748 16.5279 114.19 16.648 113.684 16.8883C113.178 17.12 112.736 17.4589 112.358 17.9051C111.989 18.3513 111.702 18.9005 111.496 19.5526C111.29 20.1962 111.187 20.9298 111.187 21.7536C111.187 22.6803 111.286 23.5427 111.483 24.3407C111.689 25.1387 111.989 25.8337 112.384 26.4258C112.779 27.0093 113.268 27.4683 113.851 27.803C114.443 28.1291 115.13 28.2921 115.911 28.2921ZM131.369 18.4071L131.189 18.4328C131.129 18.2355 131.03 18.0252 130.893 17.8021C130.764 17.579 130.592 17.3731 130.378 17.1843C130.172 16.9956 129.919 16.8411 129.619 16.721C129.327 16.5923 128.988 16.5279 128.602 16.5279C128.336 16.5279 128.083 16.5665 127.842 16.6437C127.611 16.721 127.405 16.8368 127.224 16.9913C127.053 17.1371 126.916 17.3216 126.813 17.5447C126.71 17.7678 126.658 18.0295 126.658 18.3299C126.658 18.7503 126.787 19.1536 127.044 19.5397C127.31 19.9173 127.641 20.2949 128.035 20.6724C128.43 21.0414 128.855 21.4146 129.31 21.7922C129.773 22.1697 130.202 22.5645 130.597 22.9763C130.991 23.3882 131.318 23.8301 131.575 24.3021C131.841 24.7654 131.974 25.2674 131.974 25.808C131.974 26.2456 131.897 26.6746 131.742 27.0951C131.588 27.507 131.348 27.8759 131.021 28.202C130.704 28.5281 130.292 28.7941 129.786 29C129.288 29.1974 128.692 29.296 127.997 29.296C127.585 29.296 127.199 29.2574 126.838 29.1802C126.487 29.103 126.16 29.0086 125.86 28.897C125.568 28.7769 125.302 28.6482 125.062 28.5109C124.83 28.365 124.625 28.2277 124.444 28.099L124.573 25.6535H124.779C124.865 26.0568 124.994 26.4258 125.165 26.7604C125.337 27.0951 125.547 27.3825 125.796 27.6228C126.053 27.8545 126.345 28.039 126.671 28.1762C126.997 28.305 127.353 28.3693 127.739 28.3693C128.374 28.3693 128.876 28.1934 129.245 27.8416C129.623 27.4898 129.812 27.0307 129.812 26.4644C129.812 26.0096 129.683 25.5935 129.425 25.2159C129.177 24.8298 128.859 24.4608 128.473 24.109C128.087 23.7572 127.671 23.4054 127.224 23.0536C126.787 22.7017 126.375 22.3285 125.989 21.9338C125.603 21.5305 125.281 21.0929 125.024 20.6209C124.775 20.1404 124.65 19.5955 124.65 18.9863C124.65 18.4886 124.74 18.0338 124.921 17.622C125.109 17.2015 125.367 16.8454 125.693 16.5537C126.027 16.2533 126.422 16.0216 126.877 15.8586C127.332 15.6956 127.829 15.6141 128.37 15.6141C129.082 15.6141 129.674 15.6913 130.146 15.8457C130.627 15.9916 130.991 16.1332 131.24 16.2705L131.369 18.4071ZM139.555 28.2406C139.812 28.2406 140.066 28.1934 140.314 28.099C140.572 28.0046 140.816 27.8759 141.048 27.7129C141.288 27.5499 141.516 27.3654 141.73 27.1594C141.953 26.9449 142.159 26.7218 142.348 26.4901L142.477 26.5545L141.64 28.6267C141.537 28.6782 141.408 28.7426 141.254 28.8198C141.108 28.8885 140.928 28.9528 140.713 29.0129C140.507 29.0815 140.263 29.1373 139.98 29.1802C139.697 29.2317 139.362 29.2574 138.976 29.2574C137.826 29.2574 136.929 28.9485 136.286 28.3307C135.651 27.7043 135.333 26.7304 135.333 25.409V16.8239L133.171 16.9012V15.7685C133.437 15.7857 133.754 15.7985 134.123 15.8071C134.492 15.8157 134.896 15.82 135.333 15.82C135.325 15.2108 135.308 14.6745 135.282 14.2111C135.265 13.7392 135.239 13.3316 135.205 12.9884C135.179 12.6365 135.145 12.3405 135.102 12.1003C135.059 11.86 135.016 11.6583 134.973 11.4953V11.4438H137.946V11.4953C137.895 11.6583 137.847 11.86 137.805 12.1003C137.762 12.3405 137.723 12.6323 137.689 12.9755C137.663 13.3187 137.637 13.7263 137.611 14.1982C137.594 14.6616 137.581 15.2022 137.573 15.82C138.113 15.8114 138.641 15.8028 139.156 15.7943C139.679 15.7771 140.151 15.7599 140.572 15.7428C141.001 15.717 141.361 15.6956 141.653 15.6784C141.953 15.6527 142.151 15.6312 142.245 15.6141L142.013 16.9269C141.576 16.9183 141.117 16.9055 140.636 16.8883C140.224 16.8711 139.752 16.8583 139.22 16.8497C138.688 16.8411 138.139 16.8325 137.573 16.8239V25.6793C137.573 26.2113 137.629 26.6446 137.74 26.9792C137.86 27.3053 138.01 27.5627 138.191 27.7515C138.379 27.9403 138.59 28.069 138.821 28.1376C139.062 28.2063 139.306 28.2406 139.555 28.2406ZM150.779 29.2317C149.826 29.2317 148.934 29.0815 148.101 28.7812C147.269 28.4809 146.544 28.0432 145.926 27.4683C145.308 26.8849 144.819 26.1684 144.459 25.3189C144.107 24.4608 143.931 23.4826 143.931 22.3843C143.931 21.4146 144.094 20.5179 144.42 19.6942C144.746 18.8619 145.197 18.1411 145.772 17.5319C146.347 16.9226 147.016 16.4464 147.78 16.1032C148.552 15.7599 149.384 15.5883 150.277 15.5883C151.16 15.5883 151.98 15.7428 152.735 16.0517C153.49 16.352 154.142 16.7939 154.691 17.3774C155.249 17.9523 155.687 18.6688 156.004 19.5269C156.33 20.3764 156.506 21.346 156.532 22.4357C155.562 22.4186 154.593 22.4057 153.623 22.3971C152.653 22.3885 151.645 22.3843 150.598 22.3843C149.852 22.3843 149.123 22.3885 148.41 22.3971C147.707 22.4057 147.072 22.4186 146.505 22.4357C146.557 23.3281 146.694 24.1347 146.917 24.8555C147.149 25.5763 147.462 26.1941 147.857 26.7089C148.26 27.2152 148.745 27.6056 149.311 27.8802C149.886 28.1548 150.534 28.2921 151.255 28.2921C151.753 28.2921 152.22 28.2363 152.658 28.1248C153.104 28.0046 153.507 27.8416 153.868 27.6357C154.228 27.4297 154.55 27.1895 154.833 26.9149C155.116 26.6317 155.356 26.3271 155.554 26.001L155.708 26.0783L154.756 28.3693C154.292 28.6096 153.739 28.8155 153.095 28.9871C152.452 29.1502 151.68 29.2317 150.779 29.2317ZM149.067 21.3803C149.925 21.3803 150.783 21.3803 151.641 21.3803C152.508 21.3717 153.293 21.3546 153.996 21.3288C153.919 20.5823 153.773 19.913 153.559 19.3209C153.344 18.7289 153.07 18.2269 152.735 17.815C152.4 17.4031 152.006 17.0857 151.551 16.8626C151.096 16.6395 150.594 16.5279 150.045 16.5279C149.547 16.5279 149.088 16.6395 148.668 16.8626C148.256 17.0771 147.895 17.3903 147.587 17.8021C147.278 18.214 147.029 18.7203 146.84 19.3209C146.651 19.913 146.54 20.5909 146.505 21.3546C146.892 21.3717 147.299 21.3803 147.728 21.3803C148.157 21.3803 148.603 21.3803 149.067 21.3803ZM159.299 20.8526C159.299 20.1232 159.286 19.4883 159.261 18.9477C159.243 18.3985 159.218 17.9266 159.183 17.5319C159.158 17.1371 159.119 16.8068 159.068 16.5408C159.025 16.2748 158.977 16.0517 158.926 15.8715V15.82H161.899V15.8715C161.831 16.0688 161.771 16.3091 161.719 16.5923C161.676 16.8754 161.642 17.2401 161.616 17.6863C161.934 17.4203 162.264 17.1586 162.607 16.9012C162.95 16.6437 163.302 16.4164 163.663 16.219C164.023 16.0216 164.388 15.8629 164.757 15.7428C165.134 15.6226 165.512 15.5626 165.889 15.5626C166.121 15.5626 166.323 15.5754 166.494 15.6012C166.666 15.6184 166.82 15.6484 166.958 15.6913C167.095 15.7256 167.219 15.7685 167.331 15.82C167.442 15.8629 167.55 15.9058 167.653 15.9487L167.022 18.4071L166.803 18.3556C166.7 17.9781 166.507 17.6777 166.224 17.4546C165.941 17.2229 165.555 17.1071 165.066 17.1071C164.8 17.1071 164.521 17.1543 164.229 17.2487C163.937 17.3431 163.641 17.4761 163.341 17.6477C163.04 17.8107 162.74 18.0038 162.44 18.2269C162.139 18.4414 161.848 18.6688 161.565 18.9091C161.547 19.1579 161.539 19.4282 161.539 19.7199C161.539 20.0117 161.539 20.3206 161.539 20.6467V23.9674C161.539 24.6968 161.547 25.336 161.565 25.8852C161.582 26.4258 161.607 26.8934 161.642 27.2881C161.676 27.6829 161.715 28.0132 161.758 28.2792C161.801 28.5452 161.848 28.7683 161.899 28.9485V29H158.926V28.9485C158.977 28.7683 159.025 28.5452 159.068 28.2792C159.119 28.0132 159.158 27.6829 159.183 27.2881C159.218 26.8934 159.243 26.4258 159.261 25.8852C159.286 25.336 159.299 24.6968 159.299 23.9674V20.8526Z" fill="#1F2D54"/>
<defs>
<clipPath id="clip0_1124_3331">
<rect width="40" height="40" fill="white"/>
</clipPath>
</defs>
</svg>
